<?xml version="1.0" standalone="no"?>
<!DOCTYPE svg PUBLIC "-//W3C//DTD SVG 1.1//EN" "http://www.w3.org/Graphics/SVG/1.1/DTD/svg11.dtd" >
<svg xmlns="http://www.w3.org/2000/svg">
<metadata></metadata>
<defs>
<font id="pakt_condensedbold" horiz-adv-x="600" >
<font-face units-per-em="2048" ascent="1638" descent="-410" />
<missing-glyph horiz-adv-x="245" />
<glyph horiz-adv-x="2048" />
<glyph horiz-adv-x="2048" />
<glyph unicode="&#xd;" horiz-adv-x="245" />
<glyph unicode=" "  horiz-adv-x="245" />
<glyph unicode="&#x09;" horiz-adv-x="245" />
<glyph unicode="&#xa0;" horiz-adv-x="245" />
<glyph unicode="!" horiz-adv-x="299" d="M80 0v139h139v-139h-139zM80 299v1339h139v-1339h-139z" />
<glyph unicode="&#x22;" horiz-adv-x="499" d="M80 1298v340h139v-340h-139zM281 1298v340h139v-340h-139z" />
<glyph unicode="#" horiz-adv-x="698" d="M80 698v142h100v59h-100v139h100v101h139v-101h60v101h141v-101h98v-139h-98v-59h98v-142h-98v-98h-141v98h-60v-98h-139v98h-100zM319 840h60v59h-60v-59z" />
<glyph unicode="$" d="M80 219v221h139v-221q0 -33 23.5 -56.5t56.5 -23.5t56.5 23.5t23.5 56.5v201q0 147 -78 270q-72 106 -143 211q-78 137 -78 318v200q0 72 42 129.5t107 77.5v113h140v-113q68 -20 109.5 -77.5t41.5 -129.5v-221h-141v221q0 33 -23.5 56.5t-56.5 23.5t-56.5 -23.5 t-23.5 -56.5v-200q0 -152 78 -279q72 -106 145 -211q78 -135 78 -309v-201q0 -72 -42 -129t-109 -78v-112h-140v112q-66 20 -107.5 77.5t-41.5 129.5z" />
<glyph unicode="%" horiz-adv-x="698" d="M31 1268v221q0 70 49 120t121 50q70 0 119 -50t49 -120v-221q0 -70 -49.5 -119t-118.5 -49q-72 0 -121 49t-49 119zM125 0l307 1638h141l-307 -1638h-141zM170 1268q0 -29 31 -29q29 0 28 29v221q0 29 -28 29q-31 0 -31 -29v-221zM330 150v219q0 72 50 121t120 49 t120 -49.5t50 -120.5v-219q0 -70 -50.5 -120t-119.5 -50q-70 0 -120 50t-50 120zM469 150q0 -29 31 -29q29 0 28 29l2 219q0 31 -30 30q-31 0 -31 -30v-219z" />
<glyph unicode="&#x26;" d="M80 201v518q0 86 59 149q-59 63 -59 150v420q0 92 64.5 156.5t154.5 64.5q92 0 156.5 -64.5t64.5 -156.5v-240h-141v240q0 35 -23.5 57.5t-56.5 22.5t-56.5 -22.5t-23.5 -57.5v-418q0 -35 23.5 -58.5t56.5 -23.5h319v-139h-98v-799h-71l-15 25q-57 -45 -135 -45 q-90 0 -154.5 64.5t-64.5 156.5zM219 201q0 -35 23.5 -57.5t56.5 -22.5t56.5 22.5t23.5 57.5v598h-80q-31 0 -55.5 -23.5t-24.5 -56.5v-518z" />
<glyph unicode="'" horiz-adv-x="299" d="M80 1298v340h139v-340h-139z" />
<glyph unicode="(" horiz-adv-x="350" d="M80 20v1598q0 92 67.5 155.5t171.5 63.5v-139q-100 0 -100 -80v-1598q0 -80 100 -79v-142q-104 0 -171.5 64.5t-67.5 156.5z" />
<glyph unicode=")" horiz-adv-x="350" d="M31 -59q98 0 98 79v1598q0 80 -98 80v139q104 0 171.5 -63.5t67.5 -155.5v-1598q0 -92 -67.5 -156.5t-171.5 -64.5v142z" />
<glyph unicode="*" horiz-adv-x="698" d="M80 1057v172l168 139l-168 141v172l201 -168v125h139v-125l198 168v-172l-165 -141l165 -139v-172l-198 168v-125h-139v125z" />
<glyph unicode="+" d="M31 799v139h198v201h140v-201h200v-139h-200v-199h-140v199h-198z" />
<glyph unicode="," horiz-adv-x="270" d="M29 -100l22 239h146l-72 -239h-96z" />
<glyph unicode="-" horiz-adv-x="499" d="M31 799v139h438v-139h-438z" />
<glyph unicode="." horiz-adv-x="200" d="M31 0v139h139v-139h-139z" />
<glyph unicode="/" horiz-adv-x="499" d="M27 0l307 1638h139l-307 -1638h-139z" />
<glyph unicode="0" d="M80 201v1237q0 92 64.5 156.5t154.5 64.5q92 0 156.5 -64.5t64.5 -156.5v-1237q0 -92 -64.5 -156.5t-156.5 -64.5q-90 0 -154.5 64.5t-64.5 156.5zM219 201q0 -35 23.5 -57.5t56.5 -22.5t56.5 22.5t23.5 57.5v1237q0 35 -23.5 57.5t-56.5 22.5t-56.5 -22.5t-23.5 -57.5 v-1237z" />
<glyph unicode="1" horiz-adv-x="499" d="M80 0v139h100v1360h-100v139h239v-1499h101v-139h-340z" />
<glyph unicode="2" d="M80 0v420q0 141 49 254q31 72 104 172q80 109 107 170q39 90 39 203v219q0 35 -23.5 57.5t-56.5 22.5t-56.5 -22.5t-23.5 -57.5v-240h-139v240q0 92 64.5 156.5t154.5 64.5q92 0 156.5 -64.5t64.5 -156.5v-219q0 -141 -49 -254q-31 -72 -104 -174q-80 -106 -107 -170 q-41 -88 -41 -201v-281h301v-139h-440z" />
<glyph unicode="3" d="M80 201v239h139v-239q0 -35 23.5 -57.5t56.5 -22.5t56.5 22.5t23.5 57.5v618q0 33 -23.5 56.5t-56.5 23.5h-119v123l191 477h-291v139h440v-122l-192 -480q82 -10 137 -71.5t55 -145.5v-618q0 -92 -64.5 -156.5t-156.5 -64.5q-90 0 -154.5 64.5t-64.5 156.5z" />
<glyph unicode="4" d="M31 500v323l305 815h133v-999h100v-139h-100v-500h-139v500h-299zM170 639h160v602l-160 -426v-176z" />
<glyph unicode="5" d="M80 201v239h139v-239q0 -35 23.5 -57.5t56.5 -22.5t56.5 22.5t23.5 57.5v639q0 33 -23.5 56.5t-56.5 23.5t-56.5 -24t-23.5 -56v-142h-139v940h440v-139h-301v-455q39 14 80 15q92 0 156.5 -64.5t64.5 -154.5v-639q0 -92 -64.5 -156.5t-156.5 -64.5q-90 0 -154.5 64.5 t-64.5 156.5z" />
<glyph unicode="6" d="M80 201v1237q0 92 64.5 156.5t154.5 64.5q92 0 156.5 -64.5t64.5 -156.5v-240h-141v240q0 35 -23.5 57.5t-56.5 22.5t-56.5 -22.5t-23.5 -57.5v-394q39 14 80 15q92 0 156.5 -64.5t64.5 -154.5v-639q0 -92 -64.5 -156.5t-156.5 -64.5q-90 0 -154.5 64.5t-64.5 156.5z M219 201q0 -35 23.5 -57.5t56.5 -22.5t56.5 22.5t23.5 57.5v639q0 33 -23.5 56.5t-56.5 23.5t-56.5 -24t-23.5 -56v-639z" />
<glyph unicode="7" horiz-adv-x="448" d="M31 1499v139h438v-125q-162 -311 -217 -725q-39 -287 -39 -788h-141q0 477 37 770q53 416 198 729h-276z" />
<glyph unicode="8" d="M80 201v518q0 86 59 149q-59 63 -59 150v420q0 92 64.5 156.5t154.5 64.5q92 0 156.5 -64.5t64.5 -156.5v-420q0 -86 -59 -150q59 -63 59 -149v-518q0 -92 -64.5 -156.5t-156.5 -64.5q-90 0 -154.5 64.5t-64.5 156.5zM219 201q0 -35 23.5 -57.5t56.5 -22.5t56.5 22.5 t23.5 57.5v518q0 33 -23.5 56.5t-56.5 23.5t-56.5 -23.5t-23.5 -56.5v-518zM219 1020q0 -35 23.5 -58.5t56.5 -23.5t56.5 23.5t23.5 56.5v420q0 35 -23.5 57.5t-56.5 22.5t-56.5 -22.5t-23.5 -57.5v-418z" />
<glyph unicode="9" d="M80 201v239h139v-239q0 -35 23.5 -57.5t56.5 -22.5t56.5 22.5t23.5 57.5v393q-37 -14 -80 -14q-90 0 -154.5 64.5t-64.5 154.5v639q0 92 64.5 156.5t154.5 64.5q92 0 156.5 -64.5t64.5 -156.5v-1237q0 -92 -64.5 -156.5t-156.5 -64.5q-90 0 -154.5 64.5t-64.5 156.5z M219 799q0 -33 23.5 -56.5t56.5 -23.5t56.5 23.5t23.5 56.5v639q0 35 -23.5 57.5t-56.5 22.5t-56.5 -22.5t-23.5 -57.5v-639z" />
<glyph unicode=":" horiz-adv-x="299" d="M80 0v139h139v-139h-139zM80 799v139h139v-139h-139z" />
<glyph unicode=";" horiz-adv-x="299" d="M57 -100l25 239h145l-71 -239h-99zM80 799v139h139v-139h-139z" />
<glyph unicode="&#x3c;" horiz-adv-x="448" d="M31 809v121l338 227v-149l-207 -140l207 -139v-147z" />
<glyph unicode="=" horiz-adv-x="499" d="M80 698v142h340v-142h-340zM80 899v139h340v-139h-340z" />
<glyph unicode="&#x3e;" horiz-adv-x="448" d="M80 582v147l209 139l-209 140v149l340 -227v-121z" />
<glyph unicode="?" d="M80 1198v240q0 92 64.5 156.5t154.5 64.5q92 0 156.5 -64.5t64.5 -156.5v-219q0 -184 -100.5 -459t-100.5 -461h-139q0 205 101 483q98 270 98 437v219q0 35 -23.5 57.5t-56.5 22.5t-56.5 -22.5t-23.5 -57.5v-240h-139zM180 0v139h139v-139h-139z" />
<glyph unicode="@" d="M80 299v1040q0 131 93 225.5t226 94.5t226.5 -94.5t93.5 -225.5v-940h-72l-22 39q-57 -39 -125 -39q-92 0 -155.5 64.5t-63.5 154.5v302q0 90 63.5 154.5t155.5 64.5h80v200q0 74 -53.5 126.5t-127.5 52.5t-127 -52.5t-53 -126.5v-1040q0 -74 53.5 -126t126.5 -52 q74 0 127.5 52t53.5 126v41h139v-41q0 -131 -93.5 -225t-226.5 -94t-226 94t-93 225zM420 618q0 -33 23.5 -56t56.5 -23t56.5 23t23.5 56v381h-80q-33 0 -56.5 -23.5t-23.5 -55.5v-302z" />
<glyph unicode="A" horiz-adv-x="538" d="M29 0l174 1638h135l174 -1638h-139l-35 299h-137l-33 -299h-139zM217 440h105l-52 459z" />
<glyph unicode="B" d="M80 0v1638h219q92 0 156.5 -64.5t64.5 -154.5v-399q0 -88 -59 -152q59 -61 59 -149v-500q0 -90 -64.5 -154.5t-156.5 -64.5h-219zM219 139h80q33 0 56.5 23.5t23.5 56.5v500q0 33 -23.5 56.5t-56.5 23.5h-80v-660zM219 938l80 2q33 0 56.5 22.5t23.5 57.5v399 q0 33 -23.5 56.5t-56.5 23.5h-80v-561z" />
<glyph unicode="C" d="M80 201v1237q0 92 64.5 156.5t154.5 64.5q92 0 156.5 -64.5t64.5 -156.5v-240h-141v240q0 35 -23.5 57.5t-56.5 22.5t-56.5 -22.5t-23.5 -57.5v-1237q0 -35 23.5 -57.5t56.5 -22.5t56.5 22.5t23.5 57.5v239h141v-239q0 -92 -64.5 -156.5t-156.5 -64.5q-90 0 -154.5 64.5 t-64.5 156.5z" />
<glyph unicode="D" d="M80 0v1638h219q92 0 156.5 -64.5t64.5 -154.5v-1200q0 -90 -64.5 -154.5t-156.5 -64.5h-219zM219 139h80q33 0 56.5 23.5t23.5 56.5v1200q0 33 -23.5 56.5t-56.5 23.5h-80v-1360z" />
<glyph unicode="E" d="M80 0v1638h440v-139h-301v-561h301v-139h-301v-660h301v-139h-440z" />
<glyph unicode="F" horiz-adv-x="548" d="M80 0v1638h440v-139h-301v-561h301v-139h-301v-799h-139z" />
<glyph unicode="G" d="M80 201v1237q0 92 64.5 156.5t154.5 64.5q92 0 156.5 -64.5t64.5 -156.5v-240h-141v240q0 35 -23.5 57.5t-56.5 22.5t-56.5 -22.5t-23.5 -57.5v-1237q0 -35 23.5 -57.5t56.5 -22.5t56.5 22.5t23.5 57.5v497h-98v142h239v-840h-71l-17 25q-57 -45 -133 -45 q-90 0 -154.5 64.5t-64.5 156.5z" />
<glyph unicode="H" d="M80 0v1638h139v-700h160v700h141v-1638h-141v799h-160v-799h-139z" />
<glyph unicode="I" horiz-adv-x="299" d="M80 0v1638h139v-1638h-139z" />
<glyph unicode="J" d="M80 201v338h139v-338q0 -35 23.5 -57.5t56.5 -22.5t56.5 22.5t23.5 57.5v1437h141v-1437q0 -92 -64.5 -156.5t-156.5 -64.5q-90 0 -154.5 64.5t-64.5 156.5z" />
<glyph unicode="K" d="M80 0v1638h139v-551l166 551h141l-233 -782l233 -856h-141l-166 604v-604h-139z" />
<glyph unicode="L" horiz-adv-x="548" d="M80 0v1638h139v-1499h301v-139h-440z" />
<glyph unicode="M" horiz-adv-x="739" d="M80 0v1638h117l172 -1138l174 1138h116v-1638h-139v713l-102 -713h-99l-100 713v-713h-139z" />
<glyph unicode="N" d="M80 0v1638h117l182 -890v890h141v-1638h-117l-184 891v-891h-139z" />
<glyph unicode="O" d="M80 201v1237q0 92 64.5 156.5t154.5 64.5q92 0 156.5 -64.5t64.5 -156.5v-1237q0 -92 -64.5 -156.5t-156.5 -64.5q-90 0 -154.5 64.5t-64.5 156.5zM219 201q0 -35 23.5 -57.5t56.5 -22.5t56.5 22.5t23.5 57.5v1237q0 35 -23.5 57.5t-56.5 22.5t-56.5 -22.5t-23.5 -57.5 v-1237z" />
<glyph unicode="P" d="M80 0v1638h219q92 0 156.5 -64.5t64.5 -154.5v-499q0 -92 -64.5 -157t-156.5 -65h-80v-698h-139zM219 840h80q33 0 56.5 23.5t23.5 56.5v499q0 33 -23.5 56.5t-56.5 23.5h-80v-659z" />
<glyph unicode="Q" d="M80 201v1237q0 92 64.5 156.5t154.5 64.5q92 0 156.5 -64.5t64.5 -156.5v-1237q0 -31 -8 -62h27v-139q-66 0 -137.5 -10t-102.5 -10q-90 0 -154.5 64.5t-64.5 156.5zM219 201q0 -35 23.5 -57.5t56.5 -22.5t56.5 22.5t23.5 57.5v1237q0 35 -23.5 57.5t-56.5 22.5 t-56.5 -22.5t-23.5 -57.5v-1237z" />
<glyph unicode="R" d="M80 0v1638h219q92 0 156.5 -64.5t64.5 -154.5v-499q0 -113 -90 -179l92 -741h-141l-86 698h-76v-698h-139zM219 840h80q33 0 56.5 23.5t23.5 56.5v499q0 33 -23.5 56.5t-56.5 23.5h-80v-659z" />
<glyph unicode="S" d="M80 201v239h139v-239q0 -35 23.5 -57.5t56.5 -22.5t56.5 22.5t23.5 57.5v219q0 147 -78 270q-72 106 -143 211q-78 137 -78 318v219q0 92 64.5 156.5t154.5 64.5q92 0 156.5 -64.5t64.5 -156.5v-240h-141v240q0 35 -23.5 57.5t-56.5 22.5t-56.5 -22.5t-23.5 -57.5v-219 q0 -152 78 -279q72 -106 145 -211q78 -135 78 -309v-219q0 -92 -64.5 -156.5t-156.5 -64.5q-90 0 -154.5 64.5t-64.5 156.5z" />
<glyph unicode="T" d="M31 1499v139h538v-139h-200v-1499h-140v1499h-198z" />
<glyph unicode="U" d="M80 201v1437h139v-1437q0 -35 23.5 -57.5t56.5 -22.5t56.5 22.5t23.5 57.5v1437h141v-1437q0 -92 -64.5 -156.5t-156.5 -64.5q-90 0 -154.5 64.5t-64.5 156.5z" />
<glyph unicode="V" horiz-adv-x="538" d="M29 1638h139l102 -880l103 880h139l-195 -1638h-94z" />
<glyph unicode="W" horiz-adv-x="739" d="M29 1638h139l63 -807l101 807h76l100 -807l63 807h140l-144 -1638h-96l-102 932l-101 -932h-96z" />
<glyph unicode="X" horiz-adv-x="538" d="M25 0l174 819l-174 819h141l104 -462l103 462h141l-174 -819l174 -819h-141l-103 461l-104 -461h-141z" />
<glyph unicode="Y" horiz-adv-x="538" d="M27 1638h139l104 -520l103 520h141l-174 -921v-717h-139v717z" />
<glyph unicode="Z" d="M80 0v123l295 1376h-295v139h440v-122l-295 -1377h295v-139h-440z" />
<glyph unicode="[" horiz-adv-x="499" d="M80 -201v2038h340v-139h-201v-1757h201v-142h-340z" />
<glyph unicode="\" d="M76 1638h141l307 -1638h-141z" />
<glyph unicode="]" horiz-adv-x="499" d="M80 -59h201v1757h-201v139h340v-2038h-340v142z" />
<glyph unicode="^" horiz-adv-x="499" d="M45 1298l143 240h123l144 -240h-168l-37 76l-37 -76h-168z" />
<glyph unicode="_" horiz-adv-x="399" d="M-20 -59h440v-142h-440v142z" />
<glyph unicode="`" horiz-adv-x="399" d="M41 1937h172l96 -239h-100z" />
<glyph unicode="a" horiz-adv-x="579" d="M59 201v319q0 90 64.5 154.5t157.5 64.5h79v299q0 33 -23.5 56.5t-55.5 23.5q-35 0 -57.5 -23.5t-22.5 -56.5v-139h-142v139q0 92 64.5 157t157.5 65q90 0 154.5 -65t64.5 -157v-1038h-72l-14 25q-55 -45 -133 -45q-92 0 -157 64.5t-65 156.5zM201 201q0 -35 22.5 -57.5 t57.5 -22.5q33 0 56 22.5t23 57.5v399h-79q-35 0 -57.5 -23.5t-22.5 -56.5v-319z" />
<glyph unicode="b" d="M80 0v1638h139v-395q39 16 80 17q92 0 156.5 -65t64.5 -157v-837q0 -92 -64.5 -156.5t-156.5 -64.5q-76 0 -133 45l-14 -25h-72zM219 201q0 -35 23.5 -57.5t56.5 -22.5t56.5 22.5t23.5 57.5v837q0 33 -23.5 56.5t-56.5 23.5t-56.5 -23.5t-23.5 -56.5v-837z" />
<glyph unicode="c" d="M80 201v837q0 92 64.5 157t154.5 65q92 0 156.5 -65t64.5 -157v-239h-141v239q0 33 -23.5 56.5t-56.5 23.5t-56.5 -23.5t-23.5 -56.5v-837q0 -35 23.5 -57.5t56.5 -22.5t56.5 22.5t23.5 57.5v239h141v-239q0 -92 -64.5 -156.5t-156.5 -64.5q-90 0 -154.5 64.5 t-64.5 156.5z" />
<glyph unicode="d" d="M80 201v837q0 92 64.5 157t154.5 65q43 0 80 -17v395h141v-1638h-71l-17 25q-55 -45 -133 -45q-90 0 -154.5 64.5t-64.5 156.5zM219 201q0 -35 23.5 -57.5t56.5 -22.5t56.5 22.5t23.5 57.5v837q0 33 -23.5 56.5t-56.5 23.5t-56.5 -23.5t-23.5 -56.5v-837z" />
<glyph unicode="e" d="M80 201v837q0 92 64.5 157t154.5 65q92 0 156.5 -65t64.5 -157v-438h-301v-399q0 -35 23.5 -57.5t56.5 -22.5t56.5 22.5t23.5 57.5v239h141v-239q0 -92 -64.5 -156.5t-156.5 -64.5q-90 0 -154.5 64.5t-64.5 156.5zM219 739h160v299q0 33 -23.5 56.5t-56.5 23.5 t-56.5 -23.5t-23.5 -56.5v-299z" />
<glyph unicode="f" horiz-adv-x="499" d="M31 1100v139h98v180q0 90 64.5 154.5t156.5 64.5h119v-139h-119q-33 0 -56.5 -23.5t-23.5 -56.5v-180h199v-139h-199v-1100h-141v1100h-98z" />
<glyph unicode="g" d="M80 -80q0 86 59 150q-59 63 -59 149q0 88 59 150q-59 63 -59 151v518q0 92 64.5 157t154.5 65q51 0 97 -10.5t124 -10.5v-72l-31 -18q31 -51 31 -111v-518q0 -92 -64.5 -156.5t-156.5 -64.5q-33 0 -56.5 -23.5t-23.5 -56.5t23.5 -56.5t56.5 -23.5q92 0 156.5 -64.5 t64.5 -154.5v-121q0 -90 -64.5 -154.5t-156.5 -64.5q-90 0 -154.5 64.5t-64.5 154.5v121zM219 -80v-121q0 -33 23.5 -56.5t56.5 -23.5q35 0 57.5 23.5t22.5 56.5v121q0 33 -22.5 56.5t-57.5 23.5q-33 0 -56.5 -23.5t-23.5 -56.5zM219 520q0 -35 23.5 -57.5t56.5 -22.5 t56.5 22.5t23.5 57.5v518q0 33 -23.5 56.5t-56.5 23.5t-56.5 -23.5t-23.5 -56.5v-518z" />
<glyph unicode="h" d="M80 0v1638h139v-395q39 16 80 17q92 0 156.5 -65t64.5 -157v-1038h-141v1038q0 33 -23.5 56.5t-56.5 23.5t-56.5 -23.5t-23.5 -56.5v-1038h-139z" />
<glyph unicode="i" horiz-adv-x="299" d="M80 0v1239h139v-1239h-139zM80 1499v139h139v-139h-139z" />
<glyph unicode="j" horiz-adv-x="299" d="M-121 -260h121q33 0 56.5 23.5t23.5 56.5v1419h139v-1419q0 -90 -64.5 -154.5t-154.5 -64.5h-121v139zM80 1499v139h139v-139h-139z" />
<glyph unicode="k" horiz-adv-x="548" d="M80 0v1638h139v-788l168 389h150l-250 -580l248 -659h-150l-166 442v-442h-139z" />
<glyph unicode="l" horiz-adv-x="299" d="M80 0v1638h139v-1638h-139z" />
<glyph unicode="m" horiz-adv-x="899" d="M80 0v1239h72l14 -25q57 45 133 46q88 0 150 -60q63 59 151 60q90 0 154.5 -65t64.5 -157v-1038h-139v1038q0 33 -23.5 56.5t-56.5 23.5q-35 0 -57.5 -23.5t-22.5 -56.5v-1038h-141v1038q0 33 -23.5 56.5t-56.5 23.5t-56.5 -23.5t-23.5 -56.5v-1038h-139z" />
<glyph unicode="n" d="M80 0v1239h72l14 -25q57 45 133 46q92 0 156.5 -65t64.5 -157v-1038h-141v1038q0 33 -23.5 56.5t-56.5 23.5t-56.5 -23.5t-23.5 -56.5v-1038h-139z" />
<glyph unicode="o" d="M80 201v837q0 92 64.5 157t154.5 65q92 0 156.5 -65t64.5 -157v-837q0 -92 -64.5 -156.5t-156.5 -64.5q-90 0 -154.5 64.5t-64.5 156.5zM219 201q0 -35 23.5 -57.5t56.5 -22.5t56.5 22.5t23.5 57.5v837q0 33 -23.5 56.5t-56.5 23.5t-56.5 -23.5t-23.5 -56.5v-837z" />
<glyph unicode="p" d="M80 -399v1638h72l14 -25q57 45 133 46q92 0 156.5 -65t64.5 -157v-837q0 -92 -64.5 -156.5t-156.5 -64.5q-41 0 -80 16v-395h-139zM219 201q0 -35 23.5 -57.5t56.5 -22.5t56.5 22.5t23.5 57.5v837q0 33 -23.5 56.5t-56.5 23.5t-56.5 -23.5t-23.5 -56.5v-837z" />
<glyph unicode="q" d="M80 201v837q0 92 64.5 157t154.5 65q78 0 133 -46l17 25h71v-1638h-141v395q-37 -16 -80 -16q-90 0 -154.5 64.5t-64.5 156.5zM219 201q0 -35 23.5 -57.5t56.5 -22.5t56.5 22.5t23.5 57.5v837q0 33 -23.5 56.5t-56.5 23.5t-56.5 -23.5t-23.5 -56.5v-837z" />
<glyph unicode="r" horiz-adv-x="448" d="M80 0v1239h72l22 -39q57 39 125 39h121v-139h-121q-33 0 -56.5 -23.5t-23.5 -56.5v-1020h-139z" />
<glyph unicode="s" d="M80 201v239h139v-239q0 -35 23.5 -57.5t56.5 -22.5t56.5 22.5t23.5 57.5v118q0 104 -78 197q-72 78 -143 158q-78 106 -78 246v118q0 92 64.5 157t154.5 65q92 0 156.5 -65t64.5 -157v-239h-141v239q0 33 -23.5 56.5t-56.5 23.5t-56.5 -23.5t-23.5 -56.5v-118 q0 -104 78 -197q72 -80 145 -158q78 -106 78 -246v-118q0 -92 -64.5 -156.5t-156.5 -64.5q-90 0 -154.5 64.5t-64.5 156.5z" />
<glyph unicode="t" horiz-adv-x="499" d="M31 1100v139h98v199h141v-199h199v-139h-199v-881q0 -33 23.5 -56.5t56.5 -23.5h119v-139h-119q-92 0 -156.5 64.5t-64.5 154.5v881h-98z" />
<glyph unicode="u" d="M80 201v1038h139v-1038q0 -35 23.5 -57.5t56.5 -22.5t56.5 22.5t23.5 57.5v1038h141v-1239h-71l-17 25q-55 -45 -133 -45q-90 0 -154.5 64.5t-64.5 156.5z" />
<glyph unicode="v" horiz-adv-x="538" d="M27 1239h141l102 -670l103 670h139l-195 -1239h-94z" />
<glyph unicode="w" horiz-adv-x="739" d="M29 1239h139l63 -594l91 594h94l92 -594l63 594h140l-144 -1239h-94l-104 745l-103 -745h-94z" />
<glyph unicode="x" horiz-adv-x="538" d="M23 0l176 618l-176 621h141l106 -350l105 350h141l-176 -621l176 -618h-141l-105 350l-106 -350h-141z" />
<glyph unicode="y" horiz-adv-x="538" d="M27 1239h141l104 -764l101 764h139l-225 -1638h-140l56 413z" />
<glyph unicode="z" horiz-adv-x="499" d="M31 0v123l293 977h-293v139h438v-123l-293 -977h293v-139h-438z" />
<glyph unicode="{" horiz-adv-x="499" d="M80 799v139q100 0 100 82v598q0 92 67.5 155.5t172.5 63.5v-139q-100 0 -101 -80v-598q0 -88 -59 -152q59 -63 59 -149v-699q0 -80 101 -79v-142q-104 0 -172 64.5t-68 156.5v699q0 80 -100 80z" />
<glyph unicode="|" horiz-adv-x="299" d="M80 0v1638h139v-1638h-139z" />
<glyph unicode="}" horiz-adv-x="499" d="M80 -59q100 0 100 79v699q0 86 60 149q-59 63 -60 152v598q0 80 -100 80v139q104 0 171.5 -63.5t67.5 -155.5v-598q0 -82 101 -82v-139q-100 0 -101 -80v-699q0 -92 -67.5 -156.5t-171.5 -64.5v142z" />
<glyph unicode="~" horiz-adv-x="698" d="M80 1368v121q0 70 50 120t120 50t120 -50t50 -120q0 -31 31 -31q29 0 28 31v119h139v-119q0 -72 -49 -121t-118 -49q-72 0 -121 49t-49 121q0 29 -31 29t-31 -29v-121h-139z" />
<glyph unicode="&#xa1;" horiz-adv-x="299" d="M80 0v1339h139v-1339h-139zM80 1499v139h139v-139h-139z" />
<glyph unicode="&#xa2;" d="M80 219v801q0 72 42 128t107 79v112h140v-112q68 -23 109.5 -79t41.5 -128v-221h-141v221q0 33 -23.5 56.5t-56.5 23.5t-56.5 -23.5t-23.5 -56.5v-801q0 -33 23.5 -56.5t56.5 -23.5t56.5 23.5t23.5 56.5v221h141v-221q0 -72 -42 -129t-109 -78v-112h-140v112 q-66 20 -107.5 77.5t-41.5 129.5z" />
<glyph unicode="&#xa3;" horiz-adv-x="698" d="M80 0v139h100v961h-100v139h100v180q0 90 64.5 154.5t154.5 64.5h121v-139h-121q-33 0 -56.5 -23.5t-23.5 -56.5v-180h299v-139h-299v-961h299v-139h-538z" />
<glyph unicode="&#xa4;" d="M-20 600v139h100v160h-100v139h100v381q0 90 64.5 154.5t154.5 64.5q92 0 156.5 -64.5t64.5 -154.5v-221h-141v221q0 33 -23.5 56.5t-56.5 23.5t-56.5 -23.5t-23.5 -56.5v-381h201v-139h-201v-160h201v-139h-201v-381q0 -33 23.5 -56.5t56.5 -23.5t56.5 23.5t23.5 56.5 v221h141v-221q0 -90 -64.5 -154.5t-156.5 -64.5q-90 0 -154.5 64.5t-64.5 154.5v381h-100z" />
<glyph unicode="&#xa5;" d="M76 1638h141l82 -497l84 497h139l-149 -899h147v-139h-151v-61h151v-140h-151v-399h-140v399h-149v140h149v61h-149v139h145z" />
<glyph unicode="&#xa7;" d="M80 219v221h139v-221q0 -33 23.5 -56.5t56.5 -23.5t56.5 23.5t23.5 56.5v100q0 145 -86 220q-139 115 -162 149q-51 74 -51 232v499q0 90 64.5 154.5t154.5 64.5q92 0 156.5 -64.5t64.5 -154.5v-221h-141v221q0 33 -23.5 56.5t-56.5 23.5t-56.5 -23.5t-23.5 -56.5v-100 q0 -154 88 -227q143 -119 162 -144q51 -72 51 -229v-500q0 -90 -64.5 -154.5t-156.5 -64.5q-90 0 -154.5 64.5t-64.5 154.5zM219 920q0 -131 62 -193q2 -2 98 -74v66q4 109 -37 158q-12 14 -123 98v-55z" />
<glyph unicode="&#xa8;" horiz-adv-x="499" d="M80 1698v139h139v-139h-139zM281 1698v139h139v-139h-139z" />
<glyph unicode="&#xa9;" horiz-adv-x="1198" d="M80 1018q0 217 152.5 368.5t367.5 151.5t366.5 -151.5t151.5 -368.5q0 -215 -151.5 -366.5t-366.5 -151.5t-367.5 151.5t-152.5 366.5zM219 1020q0 -158 111.5 -269.5t269.5 -111.5q156 0 267.5 111.5t111.5 269.5q0 156 -111.5 267.5t-267.5 111.5q-158 0 -269.5 -111.5 t-111.5 -267.5zM379 920v198q0 92 64.5 156.5t156.5 64.5t155.5 -64.5t63.5 -156.5v-59h-139v59q0 35 -23.5 57.5t-56.5 22.5q-35 0 -57.5 -23.5t-22.5 -56.5v-198q0 -33 22.5 -56.5t57.5 -23.5q33 0 56.5 22.5t23.5 57.5v59h139v-59q0 -92 -63.5 -157t-155.5 -65 t-156.5 64.5t-64.5 157.5z" />
<glyph unicode="&#xaa;" d="M80 520v299q0 90 64.5 154.5t154.5 64.5h80v281q0 33 -23.5 56.5t-56.5 23.5t-56.5 -23.5t-23.5 -56.5v-121h-139v121q0 90 64.5 154.5t154.5 64.5q92 0 156.5 -64.5t64.5 -154.5v-1020h-71l-25 39q-55 -39 -125 -39q-90 0 -154.5 64.5t-64.5 156.5zM219 520 q0 -33 23.5 -56.5t56.5 -23.5t56.5 22.5t23.5 57.5v379h-80q-33 0 -56.5 -23.5t-23.5 -56.5v-299z" />
<glyph unicode="&#xab;" horiz-adv-x="798" d="M80 809v121l340 227v-149l-209 -140l209 -139v-147zM379 809v121l340 227v-149l-209 -140l209 -139v-147z" />
<glyph unicode="&#xac;" d="M80 799v139h440v-240h-141v101h-299z" />
<glyph unicode="&#xad;" horiz-adv-x="499" d="M31 799v139h438v-139h-438z" />
<glyph unicode="&#xae;" horiz-adv-x="1198" d="M80 1018q0 217 152.5 368.5t367.5 151.5t366.5 -151.5t151.5 -368.5q0 -215 -151.5 -366.5t-366.5 -151.5t-367.5 151.5t-152.5 366.5zM219 1020q0 -158 111.5 -269.5t269.5 -111.5q156 0 267.5 111.5t111.5 269.5q0 156 -111.5 267.5t-267.5 111.5q-158 0 -269.5 -111.5 t-111.5 -267.5zM379 698v641h221q90 0 154.5 -64.5t64.5 -156.5q0 -100 -76 -166l84 -254h-143l-66 201h-18h-80v-201h-141zM520 1038h80q33 0 56.5 23.5t23.5 56.5t-23.5 56.5t-56.5 23.5h-80v-160z" />
<glyph unicode="&#xaf;" d="M80 1698v139h440v-139h-440z" />
<glyph unicode="&#xb0;" horiz-adv-x="499" d="M80 1368q0 72 50 121t120 49t120 -49t50 -121q0 -70 -50.5 -120t-119.5 -50q-70 0 -120 50t-50 120zM219 1368q0 -29 31 -29t31 29q0 31 -31 31t-31 -31z" />
<glyph unicode="&#xb1;" horiz-adv-x="499" d="M80 0v139h340v-139h-340zM80 799v139h100v100h139v-100h101v-139h-101v-101h-139v101h-100z" />
<glyph unicode="&#xb2;" horiz-adv-x="1597" d="M84 1425v91l39 -37l-2 2l-37 121l39 -25l-35 98l109 -86l155 -166l2 35l256 -328q29 -76 31 -81l31 -80l-47 -33l-11 -47l13 -10q18 43 20 45l19 45l10 45l-10 35l16 26h14l4 6l2 9h-2l-24 18l-19 47l-20 31l-25 24l11 9l-27 30l-37 129l86 -98l45 -29l35 -30l16 -60 l-39 -8l-4 59l-6 2l-18 21l-2 6l-47 -2l12 51l35 45l45 6l26 -6l11 2l37 -14l55 -51l55 -23l62 13l-13 -88l-26 -27l18 -43l12 -90h-12l10 -56l19 -51l22 -14l-16 -35l-19 -14l-8 37l19 -4l16 12l-10 47l-49 33l61 161l256 328l2 -35l156 166l110 86l-34 -98l36 25l-38 -123 l38 37v-91l-57 -75l53 41v-84l-28 -39l22 14l-12 -82l-80 -80l92 49l-47 -102l-94 -78l125 47l-45 -94l-35 -22q23 -20 18 -62l-82 -51l80 8l-82 -82l-28 -6l82 -12l-131 -58l-17 -4l47 -18l-88 -41h-18l22 -27h-118l-113 43l10 -32l45 -15l-12 -12l72 -25l-68 -41h-4 l80 -57h28l27 14l21 45l41 23l38 -39l35 -65l-4 -27l8 -45l-24 -25l-10 -39l-45 -63l-17 47l-8 -4l-31 31l-6 16l-14 2l-4 -16l-29 -19l-23 -4l-6 -29l-18 -2l16 -32l-82 20l-28 31l-13 43l27 47l41 8l-59 47l-41 21l12 -29l16 -57l-28 -31l-19 6l23 -94l-4 -154l-70 64 l-6 -37l-47 -115l-47 115l-7 37l-67 -64l-6 154l22 94l-18 -6l-27 31l17 57l10 29l-41 -21l-57 -47l40 -10l27 -45l-12 -43l-31 -31l-82 -20l17 32l-19 2l-6 29l-23 4l-28 19l-4 16l-13 -2l-8 -16l-30 -31l-7 4l-16 -47l-47 63l-8 39l-25 25l8 45l-4 27l33 65l39 39l43 -23 l20 -45l25 -14h31l77 57h-4l-65 41l72 25l-13 12l43 15l13 32l-115 -43h-117l21 27h-19l-86 41l45 18l-14 4l-133 58l82 12l-29 6l-82 82l80 -8l-82 51l-12 68l30 -6l-32 22l-47 94l125 -47l-95 78l-45 102l90 -49l-77 80l-15 82l23 -14l-29 39v84l53 -41z" />
<glyph unicode="&#xb3;" horiz-adv-x="1597" d="M84 1425v91l39 -37l-2 2l-37 121l39 -25l-35 98l109 -86l155 -166l2 35l256 -328q29 -76 31 -81l31 -80l-47 -33l-11 -47l13 -10q18 43 20 45l19 45l10 45l-10 35l16 26h14l4 6l2 9h-2l-24 18l-19 47l-20 31l-25 24l11 9l-27 30l-37 129l86 -98l45 -29l35 -30l16 -60 l-39 -8l-4 59l-6 2l-18 21l-2 6l-47 -2l12 51l35 45l45 6l26 -6l11 2l37 -14l55 -51l55 -23l62 13l-13 -88l-26 -27l18 -43l12 -90h-12l10 -56l19 -51l22 -14l-16 -35l-19 -14l-8 37l19 -4l16 12l-10 47l-49 33l61 161l256 328l2 -35l156 166l110 86l-34 -98l36 25l-38 -123 l38 37v-91l-57 -75l53 41v-84l-28 -39l22 14l-12 -82l-80 -80l92 49l-47 -102l-94 -78l125 47l-45 -94l-35 -22q23 -20 18 -62l-82 -51l80 8l-82 -82l-28 -6l82 -12l-131 -58l-17 -4l47 -18l-88 -41h-18l22 -27h-118l-113 43l10 -32l45 -15l-12 -12l72 -25l-68 -41h-4 l80 -57h28l27 14l21 45l41 23l38 -39l35 -65l-4 -27l8 -45l-24 -25l-10 -39l-45 -63l-17 47l-8 -4l-31 31l-6 16l-14 2l-4 -16l-29 -19l-23 -4l-6 -29l-18 -2l16 -32l-82 20l-28 31l-13 43l27 47l41 8l-59 47l-41 21l12 -29l16 -57l-28 -31l-19 6l23 -94l-4 -154l-70 64 l-6 -37l-47 -115l-47 115l-7 37l-67 -64l-6 154l22 94l-18 -6l-27 31l17 57l10 29l-41 -21l-57 -47l40 -10l27 -45l-12 -43l-31 -31l-82 -20l17 32l-19 2l-6 29l-23 4l-28 19l-4 16l-13 -2l-8 -16l-30 -31l-7 4l-16 -47l-47 63l-8 39l-25 25l8 45l-4 27l33 65l39 39l43 -23 l20 -45l25 -14h31l77 57h-4l-65 41l72 25l-13 12l43 15l13 32l-115 -43h-117l21 27h-19l-86 41l45 18l-14 4l-133 58l82 12l-29 6l-82 82l80 -8l-82 51l-12 68l30 -6l-32 22l-47 94l125 -47l-95 78l-45 102l90 -49l-77 80l-15 82l23 -14l-29 39v84l53 -41z" />
<glyph unicode="&#xb4;" horiz-adv-x="399" d="M90 1698l96 239h172l-168 -239h-100z" />
<glyph unicode="&#xb6;" horiz-adv-x="798" d="M80 1319q0 133 93 226t226 93h320v-1937h-139v1298h-60v-1298h-141v1298q-127 8 -213 99.5t-86 220.5zM219 1319q0 -70 46 -121t114 -57v356q-68 -8 -114 -59.5t-46 -118.5zM520 1139h60v360h-60v-360z" />
<glyph unicode="&#xb7;" horiz-adv-x="299" d="M80 799v139h139v-139h-139z" />
<glyph unicode="&#xb8;" horiz-adv-x="458" d="M57 -240l25 281h139l-6 -82h14q72 0 121 -49t49 -119v-121q0 -70 -49 -120t-121 -50q-70 0 -120 50.5t-50 119.5v31h142v-31q0 -31 28 -30q31 0 31 30v121q0 29 -31 29q-29 0 -28 -29v-31h-144z" />
<glyph unicode="&#xb9;" horiz-adv-x="1597" d="M84 1425v91l39 -37l-2 2l-37 121l39 -25l-35 98l109 -86l155 -166l2 35l256 -328q29 -76 31 -81l31 -80l-47 -33l-11 -47l13 -10q18 43 20 45l19 45l10 45l-10 35l16 26h14l4 6l2 9h-2l-24 18l-19 47l-20 31l-25 24l11 9l-27 30l-37 129l86 -98l45 -29l35 -30l16 -60 l-39 -8l-4 59l-6 2l-18 21l-2 6l-47 -2l12 51l35 45l45 6l26 -6l11 2l37 -14l55 -51l55 -23l62 13l-13 -88l-26 -27l18 -43l12 -90h-12l10 -56l19 -51l22 -14l-16 -35l-19 -14l-8 37l19 -4l16 12l-10 47l-49 33l61 161l256 328l2 -35l156 166l110 86l-34 -98l36 25l-38 -123 l38 37v-91l-57 -75l53 41v-84l-28 -39l22 14l-12 -82l-80 -80l92 49l-47 -102l-94 -78l125 47l-45 -94l-35 -22q23 -20 18 -62l-82 -51l80 8l-82 -82l-28 -6l82 -12l-131 -58l-17 -4l47 -18l-88 -41h-18l22 -27h-118l-113 43l10 -32l45 -15l-12 -12l72 -25l-68 -41h-4 l80 -57h28l27 14l21 45l41 23l38 -39l35 -65l-4 -27l8 -45l-24 -25l-10 -39l-45 -63l-17 47l-8 -4l-31 31l-6 16l-14 2l-4 -16l-29 -19l-23 -4l-6 -29l-18 -2l16 -32l-82 20l-28 31l-13 43l27 47l41 8l-59 47l-41 21l12 -29l16 -57l-28 -31l-19 6l23 -94l-4 -154l-70 64 l-6 -37l-47 -115l-47 115l-7 37l-67 -64l-6 154l22 94l-18 -6l-27 31l17 57l10 29l-41 -21l-57 -47l40 -10l27 -45l-12 -43l-31 -31l-82 -20l17 32l-19 2l-6 29l-23 4l-28 19l-4 16l-13 -2l-8 -16l-30 -31l-7 4l-16 -47l-47 63l-8 39l-25 25l8 45l-4 27l33 65l39 39l43 -23 l20 -45l25 -14h31l77 57h-4l-65 41l72 25l-13 12l43 15l13 32l-115 -43h-117l21 27h-19l-86 41l45 18l-14 4l-133 58l82 12l-29 6l-82 82l80 -8l-82 51l-12 68l30 -6l-32 22l-47 94l125 -47l-95 78l-45 102l90 -49l-77 80l-15 82l23 -14l-29 39v84l53 -41z" />
<glyph unicode="&#xba;" d="M80 520v799q0 90 64.5 154.5t154.5 64.5q92 0 156.5 -64.5t64.5 -154.5v-799q0 -92 -64.5 -156.5t-156.5 -64.5q-90 0 -154.5 64.5t-64.5 156.5zM219 520q0 -35 23.5 -57.5t56.5 -22.5t56.5 22.5t23.5 57.5v799q0 33 -23.5 56.5t-56.5 23.5t-56.5 -23.5t-23.5 -56.5v-799 z" />
<glyph unicode="&#xbb;" horiz-adv-x="798" d="M80 582v147l209 139l-209 140v149l340 -227v-121zM379 582v147l209 139l-209 140v149l340 -227v-121z" />
<glyph unicode="&#xbc;" horiz-adv-x="1597" d="M84 1425v91l39 -37l-2 2l-37 121l39 -25l-35 98l109 -86l155 -166l2 35l256 -328q29 -76 31 -81l31 -80l-47 -33l-11 -47l13 -10q18 43 20 45l19 45l10 45l-10 35l16 26h14l4 6l2 9h-2l-24 18l-19 47l-20 31l-25 24l11 9l-27 30l-37 129l86 -98l45 -29l35 -30l16 -60 l-39 -8l-4 59l-6 2l-18 21l-2 6l-47 -2l12 51l35 45l45 6l26 -6l11 2l37 -14l55 -51l55 -23l62 13l-13 -88l-26 -27l18 -43l12 -90h-12l10 -56l19 -51l22 -14l-16 -35l-19 -14l-8 37l19 -4l16 12l-10 47l-49 33l61 161l256 328l2 -35l156 166l110 86l-34 -98l36 25l-38 -123 l38 37v-91l-57 -75l53 41v-84l-28 -39l22 14l-12 -82l-80 -80l92 49l-47 -102l-94 -78l125 47l-45 -94l-35 -22q23 -20 18 -62l-82 -51l80 8l-82 -82l-28 -6l82 -12l-131 -58l-17 -4l47 -18l-88 -41h-18l22 -27h-118l-113 43l10 -32l45 -15l-12 -12l72 -25l-68 -41h-4 l80 -57h28l27 14l21 45l41 23l38 -39l35 -65l-4 -27l8 -45l-24 -25l-10 -39l-45 -63l-17 47l-8 -4l-31 31l-6 16l-14 2l-4 -16l-29 -19l-23 -4l-6 -29l-18 -2l16 -32l-82 20l-28 31l-13 43l27 47l41 8l-59 47l-41 21l12 -29l16 -57l-28 -31l-19 6l23 -94l-4 -154l-70 64 l-6 -37l-47 -115l-47 115l-7 37l-67 -64l-6 154l22 94l-18 -6l-27 31l17 57l10 29l-41 -21l-57 -47l40 -10l27 -45l-12 -43l-31 -31l-82 -20l17 32l-19 2l-6 29l-23 4l-28 19l-4 16l-13 -2l-8 -16l-30 -31l-7 4l-16 -47l-47 63l-8 39l-25 25l8 45l-4 27l33 65l39 39l43 -23 l20 -45l25 -14h31l77 57h-4l-65 41l72 25l-13 12l43 15l13 32l-115 -43h-117l21 27h-19l-86 41l45 18l-14 4l-133 58l82 12l-29 6l-82 82l80 -8l-82 51l-12 68l30 -6l-32 22l-47 94l125 -47l-95 78l-45 102l90 -49l-77 80l-15 82l23 -14l-29 39v84l53 -41z" />
<glyph unicode="&#xbd;" horiz-adv-x="1597" d="M84 1425v91l39 -37l-2 2l-37 121l39 -25l-35 98l109 -86l155 -166l2 35l256 -328q29 -76 31 -81l31 -80l-47 -33l-11 -47l13 -10q18 43 20 45l19 45l10 45l-10 35l16 26h14l4 6l2 9h-2l-24 18l-19 47l-20 31l-25 24l11 9l-27 30l-37 129l86 -98l45 -29l35 -30l16 -60 l-39 -8l-4 59l-6 2l-18 21l-2 6l-47 -2l12 51l35 45l45 6l26 -6l11 2l37 -14l55 -51l55 -23l62 13l-13 -88l-26 -27l18 -43l12 -90h-12l10 -56l19 -51l22 -14l-16 -35l-19 -14l-8 37l19 -4l16 12l-10 47l-49 33l61 161l256 328l2 -35l156 166l110 86l-34 -98l36 25l-38 -123 l38 37v-91l-57 -75l53 41v-84l-28 -39l22 14l-12 -82l-80 -80l92 49l-47 -102l-94 -78l125 47l-45 -94l-35 -22q23 -20 18 -62l-82 -51l80 8l-82 -82l-28 -6l82 -12l-131 -58l-17 -4l47 -18l-88 -41h-18l22 -27h-118l-113 43l10 -32l45 -15l-12 -12l72 -25l-68 -41h-4 l80 -57h28l27 14l21 45l41 23l38 -39l35 -65l-4 -27l8 -45l-24 -25l-10 -39l-45 -63l-17 47l-8 -4l-31 31l-6 16l-14 2l-4 -16l-29 -19l-23 -4l-6 -29l-18 -2l16 -32l-82 20l-28 31l-13 43l27 47l41 8l-59 47l-41 21l12 -29l16 -57l-28 -31l-19 6l23 -94l-4 -154l-70 64 l-6 -37l-47 -115l-47 115l-7 37l-67 -64l-6 154l22 94l-18 -6l-27 31l17 57l10 29l-41 -21l-57 -47l40 -10l27 -45l-12 -43l-31 -31l-82 -20l17 32l-19 2l-6 29l-23 4l-28 19l-4 16l-13 -2l-8 -16l-30 -31l-7 4l-16 -47l-47 63l-8 39l-25 25l8 45l-4 27l33 65l39 39l43 -23 l20 -45l25 -14h31l77 57h-4l-65 41l72 25l-13 12l43 15l13 32l-115 -43h-117l21 27h-19l-86 41l45 18l-14 4l-133 58l82 12l-29 6l-82 82l80 -8l-82 51l-12 68l30 -6l-32 22l-47 94l125 -47l-95 78l-45 102l90 -49l-77 80l-15 82l23 -14l-29 39v84l53 -41z" />
<glyph unicode="&#xbe;" horiz-adv-x="1597" d="M84 1425v91l39 -37l-2 2l-37 121l39 -25l-35 98l109 -86l155 -166l2 35l256 -328q29 -76 31 -81l31 -80l-47 -33l-11 -47l13 -10q18 43 20 45l19 45l10 45l-10 35l16 26h14l4 6l2 9h-2l-24 18l-19 47l-20 31l-25 24l11 9l-27 30l-37 129l86 -98l45 -29l35 -30l16 -60 l-39 -8l-4 59l-6 2l-18 21l-2 6l-47 -2l12 51l35 45l45 6l26 -6l11 2l37 -14l55 -51l55 -23l62 13l-13 -88l-26 -27l18 -43l12 -90h-12l10 -56l19 -51l22 -14l-16 -35l-19 -14l-8 37l19 -4l16 12l-10 47l-49 33l61 161l256 328l2 -35l156 166l110 86l-34 -98l36 25l-38 -123 l38 37v-91l-57 -75l53 41v-84l-28 -39l22 14l-12 -82l-80 -80l92 49l-47 -102l-94 -78l125 47l-45 -94l-35 -22q23 -20 18 -62l-82 -51l80 8l-82 -82l-28 -6l82 -12l-131 -58l-17 -4l47 -18l-88 -41h-18l22 -27h-118l-113 43l10 -32l45 -15l-12 -12l72 -25l-68 -41h-4 l80 -57h28l27 14l21 45l41 23l38 -39l35 -65l-4 -27l8 -45l-24 -25l-10 -39l-45 -63l-17 47l-8 -4l-31 31l-6 16l-14 2l-4 -16l-29 -19l-23 -4l-6 -29l-18 -2l16 -32l-82 20l-28 31l-13 43l27 47l41 8l-59 47l-41 21l12 -29l16 -57l-28 -31l-19 6l23 -94l-4 -154l-70 64 l-6 -37l-47 -115l-47 115l-7 37l-67 -64l-6 154l22 94l-18 -6l-27 31l17 57l10 29l-41 -21l-57 -47l40 -10l27 -45l-12 -43l-31 -31l-82 -20l17 32l-19 2l-6 29l-23 4l-28 19l-4 16l-13 -2l-8 -16l-30 -31l-7 4l-16 -47l-47 63l-8 39l-25 25l8 45l-4 27l33 65l39 39l43 -23 l20 -45l25 -14h31l77 57h-4l-65 41l72 25l-13 12l43 15l13 32l-115 -43h-117l21 27h-19l-86 41l45 18l-14 4l-133 58l82 12l-29 6l-82 82l80 -8l-82 51l-12 68l30 -6l-32 22l-47 94l125 -47l-95 78l-45 102l90 -49l-77 80l-15 82l23 -14l-29 39v84l53 -41z" />
<glyph unicode="&#xbf;" d="M80 201v219q0 184 100.5 458.5t100.5 460.5h139q0 -205 -103 -483q-98 -270 -98 -436v-219q0 -35 23.5 -57.5t56.5 -22.5t56.5 22.5t23.5 57.5v239h141v-239q0 -92 -64.5 -156.5t-156.5 -64.5q-90 0 -154.5 64.5t-64.5 156.5zM281 1499v139h139v-139h-139z" />
<glyph unicode="&#xc0;" horiz-adv-x="538" d="M29 0l174 1638h135l174 -1638h-139l-35 299h-137l-33 -299h-139zM61 1937h172l97 -239h-101zM217 440h105l-52 459z" />
<glyph unicode="&#xc1;" horiz-adv-x="538" d="M29 0l174 1638h135l174 -1638h-139l-35 299h-137l-33 -299h-139zM217 440h105l-52 459zM229 1698l97 239h172l-168 -239h-101z" />
<glyph unicode="&#xc2;" horiz-adv-x="538" d="M29 0l174 1638h135l174 -1638h-139l-35 299h-137l-33 -299h-139zM74 1698l145 239h121l145 -239h-168l-36 76l-39 -76h-168zM217 440h105l-52 459z" />
<glyph unicode="&#xc3;" horiz-adv-x="557" d="M29 0l174 1638h135l174 -1638h-139l-35 299h-137l-33 -299h-139zM80 1698v121q0 70 50 120t120 50t120 -50.5t50 -119.5q0 -31 31 -31q29 0 28 31v118h139v-118q0 -72 -49 -121t-120 -49q-70 0 -119 49t-49 121q0 29 -31 28q-31 0 -31 -28v-121h-139zM217 440h105 l-52 459z" />
<glyph unicode="&#xc4;" horiz-adv-x="544" d="M31 0l174 1638h135l174 -1638h-139l-35 299h-135l-35 -299h-139zM102 1698v139h142v-139h-142zM221 440h105l-54 459zM303 1698v139h139v-139h-139z" />
<glyph unicode="&#xc5;" horiz-adv-x="544" d="M31 0l170 1595q-98 45 -99 154q0 70 50.5 119t119.5 49q70 0 120 -49t50 -119q0 -109 -96 -154l168 -1595h-139l-35 299h-135l-35 -299h-139zM221 440h105l-54 459zM244 1749q0 -31 28 -31q31 0 31 31q0 29 -31 29q-29 0 -28 -29z" />
<glyph unicode="&#xc6;" horiz-adv-x="899" d="M-25 0l408 1638h436v-139h-299v-561h199v-139h-199v-660h299v-139h-440v399h-164l-100 -399h-140zM250 539h129v518z" />
<glyph unicode="&#xc7;" d="M80 201v1237q0 92 64.5 156.5t154.5 64.5q92 0 156.5 -64.5t64.5 -156.5v-240h-141v240q0 35 -23.5 57.5t-56.5 22.5t-56.5 -22.5t-23.5 -57.5v-1237q0 -35 23.5 -57.5t56.5 -22.5t56.5 22.5t23.5 57.5v239h141v-239q0 -92 -64.5 -156.5t-156.5 -64.5q-90 0 -154.5 64.5 t-64.5 156.5zM199 -240l22 281h139l-4 -82h13q72 0 121 -49t49 -119v-121q0 -70 -49.5 -120t-120.5 -50q-70 0 -119 50.5t-49 119.5v31h139v-31q0 -31 29 -30q31 0 30 30v121q0 29 -30 29q-29 0 -29 -29v-31h-141z" />
<glyph unicode="&#xc8;" d="M61 1937h172l97 -239h-101zM80 0v1638h440v-139h-301v-561h301v-139h-301v-660h301v-139h-440z" />
<glyph unicode="&#xc9;" d="M80 0v1638h440v-139h-301v-561h301v-139h-301v-660h301v-139h-440z" />
<glyph unicode="&#xca;" d="M80 0v1638h440v-139h-301v-561h301v-139h-301v-660h301v-139h-440zM94 1698l144 239h122l144 -239h-166l-39 76l-37 -76h-168z" />
<glyph unicode="&#xcb;" d="M80 0v1638h440v-139h-301v-561h301v-139h-301v-660h301v-139h-440zM129 1698v139h141v-139h-141zM330 1698v139h139v-139h-139z" />
<glyph unicode="&#xcc;" horiz-adv-x="266" d="M-47 1937h170l96 -239h-100zM80 0v1638h139v-1638h-139z" />
<glyph unicode="&#xcd;" horiz-adv-x="294" d="M80 0v1638h139v-1638h-139zM82 1698l94 239h172l-168 -239h-98z" />
<glyph unicode="&#xce;" horiz-adv-x="303" d="M-63 1698l145 239h121l145 -239h-168l-37 76l-39 -76h-167zM80 0v1638h139v-1638h-139z" />
<glyph unicode="&#xcf;" horiz-adv-x="276" d="M-16 1698v139h139v-139h-139zM80 0v1638h139v-1638h-139zM182 1698v139h140v-139h-140z" />
<glyph unicode="&#xd0;" d="M-20 799v139h339v-139h-339zM80 0v1638h219q92 0 156.5 -64.5t64.5 -154.5v-1200q0 -90 -64.5 -154.5t-156.5 -64.5h-219zM219 139h80q33 0 56.5 23.5t23.5 56.5v1200q0 33 -23.5 56.5t-56.5 23.5h-80v-1360z" />
<glyph unicode="&#xd1;" d="M80 0v1638h117l182 -890v890h141v-1638h-117l-184 891v-891h-139zM80 1698v121q0 70 50 120t120 50t120 -50.5t50 -119.5q0 -31 31 -31q29 0 28 31v118h139v-118q0 -72 -49 -121t-120 -49q-70 0 -119 49t-49 121q0 29 -31 28q-31 0 -31 -28v-121h-139z" />
<glyph unicode="&#xd2;" d="M61 1937h172l97 -239h-101zM80 201v1237q0 92 64.5 156.5t154.5 64.5q92 0 156.5 -64.5t64.5 -156.5v-1237q0 -92 -64.5 -156.5t-156.5 -64.5q-90 0 -154.5 64.5t-64.5 156.5zM219 201q0 -35 23.5 -57.5t56.5 -22.5t56.5 22.5t23.5 57.5v1237q0 35 -23.5 57.5t-56.5 22.5 t-56.5 -22.5t-23.5 -57.5v-1237z" />
<glyph unicode="&#xd3;" d="M80 201v1237q0 92 64.5 156.5t154.5 64.5q92 0 156.5 -64.5t64.5 -156.5v-1237q0 -92 -64.5 -156.5t-156.5 -64.5q-90 0 -154.5 64.5t-64.5 156.5zM219 201q0 -35 23.5 -57.5t56.5 -22.5t56.5 22.5t23.5 57.5v1237q0 35 -23.5 57.5t-56.5 22.5t-56.5 -22.5t-23.5 -57.5 v-1237zM229 1698l97 239h172l-168 -239h-101z" />
<glyph unicode="&#xd4;" d="M80 201v1237q0 92 64.5 156.5t154.5 64.5q92 0 156.5 -64.5t64.5 -156.5v-1237q0 -92 -64.5 -156.5t-156.5 -64.5q-90 0 -154.5 64.5t-64.5 156.5zM94 1698l144 239h122l144 -239h-166l-39 76l-37 -76h-168zM219 201q0 -35 23.5 -57.5t56.5 -22.5t56.5 22.5t23.5 57.5 v1237q0 35 -23.5 57.5t-56.5 22.5t-56.5 -22.5t-23.5 -57.5v-1237z" />
<glyph unicode="&#xd5;" horiz-adv-x="577" d="M80 201v1237q0 92 64.5 156.5t154.5 64.5q92 0 156.5 -64.5t64.5 -156.5v-1237q0 -92 -64.5 -156.5t-156.5 -64.5q-90 0 -154.5 64.5t-64.5 156.5zM80 1698v121q0 70 50 120t120 50t120 -50.5t50 -119.5q0 -31 31 -31q29 0 28 31v118h139v-118q0 -72 -49 -121t-120 -49 q-70 0 -119 49t-49 121q0 29 -31 28q-31 0 -31 -28v-121h-139zM219 201q0 -35 23.5 -57.5t56.5 -22.5t56.5 22.5t23.5 57.5v1237q0 35 -23.5 57.5t-56.5 22.5t-56.5 -22.5t-23.5 -57.5v-1237z" />
<glyph unicode="&#xd6;" d="M80 201v1237q0 92 64.5 156.5t154.5 64.5q92 0 156.5 -64.5t64.5 -156.5v-1237q0 -92 -64.5 -156.5t-156.5 -64.5q-90 0 -154.5 64.5t-64.5 156.5zM129 1698v139h141v-139h-141zM219 201q0 -35 23.5 -57.5t56.5 -22.5t56.5 22.5t23.5 57.5v1237q0 35 -23.5 57.5 t-56.5 22.5t-56.5 -22.5t-23.5 -57.5v-1237zM330 1698v139h139v-139h-139z" />
<glyph unicode="&#xd8;" d="M80 219v1200q0 90 64.5 154.5t154.5 64.5q92 0 156.5 -64.5t64.5 -154.5v-1200q0 -90 -64.5 -154.5t-156.5 -64.5q-90 0 -154.5 64.5t-64.5 154.5zM219 217q2 -33 24.5 -55.5t55.5 -22.5t56.5 23.5t23.5 56.5v637zM219 782l160 639q0 33 -23.5 55.5t-56.5 22.5 t-56.5 -23.5t-23.5 -56.5v-637z" />
<glyph unicode="&#xd9;" d="M61 1937h172l97 -239h-101zM80 201v1437h139v-1437q0 -35 23.5 -57.5t56.5 -22.5t56.5 22.5t23.5 57.5v1437h141v-1437q0 -92 -64.5 -156.5t-156.5 -64.5q-90 0 -154.5 64.5t-64.5 156.5z" />
<glyph unicode="&#xda;" d="M80 201v1437h139v-1437q0 -35 23.5 -57.5t56.5 -22.5t56.5 22.5t23.5 57.5v1437h141v-1437q0 -92 -64.5 -156.5t-156.5 -64.5q-90 0 -154.5 64.5t-64.5 156.5zM229 1698l97 239h172l-168 -239h-101z" />
<glyph unicode="&#xdb;" d="M80 201v1437h139v-1437q0 -35 23.5 -57.5t56.5 -22.5t56.5 22.5t23.5 57.5v1437h141v-1437q0 -92 -64.5 -156.5t-156.5 -64.5q-90 0 -154.5 64.5t-64.5 156.5zM94 1698l144 239h122l144 -239h-166l-39 76l-37 -76h-168z" />
<glyph unicode="&#xdc;" d="M80 201v1437h139v-1437q0 -35 23.5 -57.5t56.5 -22.5t56.5 22.5t23.5 57.5v1437h141v-1437q0 -92 -64.5 -156.5t-156.5 -64.5q-90 0 -154.5 64.5t-64.5 156.5zM129 1698v139h141v-139h-141zM330 1698v139h139v-139h-139z" />
<glyph unicode="&#xdd;" horiz-adv-x="638" d="M76 1638h141l102 -520l105 520h139l-174 -921v-717h-139v717z" />
<glyph unicode="&#xde;" d="M80 0v1638h219q92 0 156.5 -64.5t64.5 -154.5v-499q0 -92 -64.5 -157t-156.5 -65h-80v-698h-139zM219 840h80q33 0 56.5 23.5t23.5 56.5v499q0 33 -23.5 56.5t-56.5 23.5h-80v-659z" />
<glyph unicode="&#xdf;" d="M80 0v1419q0 90 64.5 154.5t154.5 64.5q92 0 156.5 -64.5t64.5 -154.5v-399q0 -88 -59 -152q59 -61 59 -149v-500q0 -90 -64.5 -154.5t-156.5 -64.5h-59v139h59q33 0 56.5 23.5t23.5 56.5v500q0 33 -23.5 56.5t-56.5 23.5h-59v139l59 2q33 0 56.5 22.5t23.5 57.5v399 q0 33 -23.5 56.5t-56.5 23.5t-56.5 -23.5t-23.5 -56.5v-1419h-139z" />
<glyph unicode="&#xe0;" d="M59 201v319q0 90 64.5 154.5t157.5 64.5h79v299q0 33 -23.5 56.5t-55.5 23.5q-35 0 -57.5 -23.5t-22.5 -56.5v-139h-142v139q0 92 64.5 157t157.5 65q90 0 154.5 -65t64.5 -157v-1038h-72l-14 25q-55 -45 -133 -45q-92 0 -157 64.5t-65 156.5zM61 1538h172l97 -240h-101z M201 201q0 -35 22.5 -57.5t57.5 -22.5q33 0 56 22.5t23 57.5v399h-79q-35 0 -57.5 -23.5t-22.5 -56.5v-319z" />
<glyph unicode="&#xe1;" d="M59 201v319q0 90 64.5 154.5t157.5 64.5h79v299q0 33 -23.5 56.5t-55.5 23.5q-35 0 -57.5 -23.5t-22.5 -56.5v-139h-142v139q0 92 64.5 157t157.5 65q90 0 154.5 -65t64.5 -157v-1038h-72l-14 25q-55 -45 -133 -45q-92 0 -157 64.5t-65 156.5zM201 201q0 -35 22.5 -57.5 t57.5 -22.5q33 0 56 22.5t23 57.5v399h-79q-35 0 -57.5 -23.5t-22.5 -56.5v-319zM229 1298l97 240h172l-168 -240h-101z" />
<glyph unicode="&#xe2;" d="M59 201v319q0 90 64.5 154.5t157.5 64.5h79v299q0 33 -23.5 56.5t-55.5 23.5q-35 0 -57.5 -23.5t-22.5 -56.5v-139h-142v139q0 92 64.5 157t157.5 65q90 0 154.5 -65t64.5 -157v-1038h-72l-14 25q-55 -45 -133 -45q-92 0 -157 64.5t-65 156.5zM94 1298l144 240h122 l144 -240h-166l-39 76l-37 -76h-168zM201 201q0 -35 22.5 -57.5t57.5 -22.5q33 0 56 22.5t23 57.5v399h-79q-35 0 -57.5 -23.5t-22.5 -56.5v-319z" />
<glyph unicode="&#xe3;" d="M59 201v319q0 90 64.5 154.5t157.5 64.5h79v299q0 33 -23.5 56.5t-55.5 23.5q-35 0 -57.5 -23.5t-22.5 -56.5v-139h-142v139q0 92 64.5 157t157.5 65q90 0 154.5 -65t64.5 -157v-1038h-72l-14 25q-55 -45 -133 -45q-92 0 -157 64.5t-65 156.5zM80 1298v121q0 70 50 119 t120 49t120 -49t50 -119q0 -31 31 -30q29 0 28 30v119h139v-119q0 -72 -49 -121t-120 -49q-70 0 -119 49.5t-49 120.5q0 29 -31 29t-31 -29v-121h-139zM201 201q0 -35 22.5 -57.5t57.5 -22.5q33 0 56 22.5t23 57.5v399h-79q-35 0 -57.5 -23.5t-22.5 -56.5v-319z" />
<glyph unicode="&#xe4;" d="M59 201v319q0 90 64.5 154.5t157.5 64.5h79v299q0 33 -23.5 56.5t-55.5 23.5q-35 0 -57.5 -23.5t-22.5 -56.5v-139h-142v139q0 92 64.5 157t157.5 65q90 0 154.5 -65t64.5 -157v-1038h-72l-14 25q-55 -45 -133 -45q-92 0 -157 64.5t-65 156.5zM129 1298v140h141v-140 h-141zM201 201q0 -35 22.5 -57.5t57.5 -22.5q33 0 56 22.5t23 57.5v399h-79q-35 0 -57.5 -23.5t-22.5 -56.5v-319zM330 1298v140h139v-140h-139z" />
<glyph unicode="&#xe5;" d="M59 201v319q0 90 64.5 154.5t157.5 64.5h79v299q0 33 -23.5 56.5t-55.5 23.5q-35 0 -57.5 -23.5t-22.5 -56.5v-139h-142v139q0 92 64.5 157t157.5 65q90 0 154.5 -65t64.5 -157v-1038h-72l-14 25q-55 -45 -133 -45q-92 0 -157 64.5t-65 156.5zM129 1368q0 72 50 121 t120 49q72 0 121 -49t49 -121q0 -70 -49 -120t-121 -50q-70 0 -120 50t-50 120zM201 201q0 -35 22.5 -57.5t57.5 -22.5q33 0 56 22.5t23 57.5v399h-79q-35 0 -57.5 -23.5t-22.5 -56.5v-319zM270 1368q0 -29 29 -29q31 0 31 29q0 31 -31 31q-29 0 -29 -31z" />
<glyph unicode="&#xe6;" horiz-adv-x="899" d="M80 219v301q0 90 64.5 154.5t154.5 64.5h80v281q0 33 -23.5 56.5t-56.5 23.5t-56.5 -23.5t-23.5 -56.5v-121h-139v121q0 90 64.5 154.5t154.5 64.5q88 0 150 -59q63 59 151 59q90 0 154.5 -64.5t64.5 -154.5v-420h-299v-381q0 -33 22.5 -56.5t57.5 -23.5q33 0 56.5 23.5 t23.5 56.5v221h139v-221q0 -90 -64.5 -154.5t-154.5 -64.5q-43 0 -80 14v-14h-71l-25 39q-55 -39 -125 -39q-90 0 -154.5 64.5t-64.5 154.5zM219 219q0 -33 23.5 -56.5t56.5 -23.5t56.5 23.5t23.5 56.5v381h-80q-33 0 -56.5 -23.5t-23.5 -56.5v-301zM520 739h160v281 q0 33 -23.5 56.5t-56.5 23.5q-35 0 -57.5 -23.5t-22.5 -56.5v-281z" />
<glyph unicode="&#xe7;" d="M80 201v837q0 92 64.5 157t154.5 65q92 0 156.5 -65t64.5 -157v-239h-141v239q0 33 -23.5 56.5t-56.5 23.5t-56.5 -23.5t-23.5 -56.5v-837q0 -35 23.5 -57.5t56.5 -22.5t56.5 22.5t23.5 57.5v239h141v-239q0 -92 -64.5 -156.5t-156.5 -64.5q-90 0 -154.5 64.5 t-64.5 156.5zM199 -240l22 281h139l-4 -82h13q72 0 121 -49t49 -119v-121q0 -70 -49.5 -120t-120.5 -50q-70 0 -119 50.5t-49 119.5v31h139v-31q0 -31 29 -30q31 0 30 30v121q0 29 -30 29q-29 0 -29 -29v-31h-141z" />
<glyph unicode="&#xe8;" d="M61 1538h172l97 -240h-101zM80 201v837q0 92 64.5 157t154.5 65q92 0 156.5 -65t64.5 -157v-438h-301v-399q0 -35 23.5 -57.5t56.5 -22.5t56.5 22.5t23.5 57.5v239h141v-239q0 -92 -64.5 -156.5t-156.5 -64.5q-90 0 -154.5 64.5t-64.5 156.5zM219 739h160v299 q0 33 -23.5 56.5t-56.5 23.5t-56.5 -23.5t-23.5 -56.5v-299z" />
<glyph unicode="&#xe9;" d="M80 201v837q0 92 64.5 157t154.5 65q92 0 156.5 -65t64.5 -157v-438h-301v-399q0 -35 23.5 -57.5t56.5 -22.5t56.5 22.5t23.5 57.5v239h141v-239q0 -92 -64.5 -156.5t-156.5 -64.5q-90 0 -154.5 64.5t-64.5 156.5zM219 739h160v299q0 33 -23.5 56.5t-56.5 23.5 t-56.5 -23.5t-23.5 -56.5v-299zM229 1298l97 240h172l-168 -240h-101z" />
<glyph unicode="&#xea;" d="M80 201v837q0 92 64.5 157t154.5 65q92 0 156.5 -65t64.5 -157v-438h-301v-399q0 -35 23.5 -57.5t56.5 -22.5t56.5 22.5t23.5 57.5v239h141v-239q0 -92 -64.5 -156.5t-156.5 -64.5q-90 0 -154.5 64.5t-64.5 156.5zM94 1298l144 240h122l144 -240h-166l-39 76l-37 -76 h-168zM219 739h160v299q0 33 -23.5 56.5t-56.5 23.5t-56.5 -23.5t-23.5 -56.5v-299z" />
<glyph unicode="&#xeb;" d="M80 201v837q0 92 64.5 157t154.5 65q92 0 156.5 -65t64.5 -157v-438h-301v-399q0 -35 23.5 -57.5t56.5 -22.5t56.5 22.5t23.5 57.5v239h141v-239q0 -92 -64.5 -156.5t-156.5 -64.5q-90 0 -154.5 64.5t-64.5 156.5zM129 1298v140h141v-140h-141zM219 739h160v299 q0 33 -23.5 56.5t-56.5 23.5t-56.5 -23.5t-23.5 -56.5v-299zM330 1298v140h139v-140h-139z" />
<glyph unicode="&#xec;" horiz-adv-x="299" d="M-39 1538h172l96 -240h-100zM80 0v1239h139v-1239h-139z" />
<glyph unicode="&#xed;" horiz-adv-x="299" d="M70 1298l96 240h172l-168 -240h-100zM80 0v1239h139v-1239h-139z" />
<glyph unicode="&#xee;" horiz-adv-x="299" d="M-55 1298l143 240h123l143 -240h-166l-38 76l-37 -76h-168zM80 0v1239h139v-1239h-139z" />
<glyph unicode="&#xef;" horiz-adv-x="299" d="M-20 1298v140h141v-140h-141zM80 0v1239h139v-1239h-139zM180 1298v140h139v-140h-139z" />
<glyph unicode="&#xf0;" d="M80 201v837q0 92 64.5 157t154.5 65q43 0 80 -17v395h141v-1638h-71l-17 25q-55 -45 -133 -45q-90 0 -154.5 64.5t-64.5 156.5zM219 201q0 -35 23.5 -57.5t56.5 -22.5t56.5 22.5t23.5 57.5v837q0 33 -23.5 56.5t-56.5 23.5t-56.5 -23.5t-23.5 -56.5v-837zM281 1499v139 h337v-139h-337z" />
<glyph unicode="&#xf1;" d="M80 0v1239h72l14 -25q57 45 133 46q92 0 156.5 -65t64.5 -157v-1038h-141v1038q0 33 -23.5 56.5t-56.5 23.5t-56.5 -23.5t-23.5 -56.5v-1038h-139zM80 1298v121q0 70 50 119t120 49t120 -49t50 -119q0 -31 31 -30q29 0 28 30v119h139v-119q0 -72 -49 -121t-120 -49 q-70 0 -119 49.5t-49 120.5q0 29 -31 29t-31 -29v-121h-139z" />
<glyph unicode="&#xf2;" d="M61 1538h172l97 -240h-101zM80 201v837q0 92 64.5 157t154.5 65q92 0 156.5 -65t64.5 -157v-837q0 -92 -64.5 -156.5t-156.5 -64.5q-90 0 -154.5 64.5t-64.5 156.5zM219 201q0 -35 23.5 -57.5t56.5 -22.5t56.5 22.5t23.5 57.5v837q0 33 -23.5 56.5t-56.5 23.5 t-56.5 -23.5t-23.5 -56.5v-837z" />
<glyph unicode="&#xf3;" d="M80 201v837q0 92 64.5 157t154.5 65q92 0 156.5 -65t64.5 -157v-837q0 -92 -64.5 -156.5t-156.5 -64.5q-90 0 -154.5 64.5t-64.5 156.5zM219 201q0 -35 23.5 -57.5t56.5 -22.5t56.5 22.5t23.5 57.5v837q0 33 -23.5 56.5t-56.5 23.5t-56.5 -23.5t-23.5 -56.5v-837z M229 1298l97 240h172l-168 -240h-101z" />
<glyph unicode="&#xf4;" d="M80 201v837q0 92 64.5 157t154.5 65q92 0 156.5 -65t64.5 -157v-837q0 -92 -64.5 -156.5t-156.5 -64.5q-90 0 -154.5 64.5t-64.5 156.5zM94 1298l144 240h122l144 -240h-166l-39 76l-37 -76h-168zM219 201q0 -35 23.5 -57.5t56.5 -22.5t56.5 22.5t23.5 57.5v837 q0 33 -23.5 56.5t-56.5 23.5t-56.5 -23.5t-23.5 -56.5v-837z" />
<glyph unicode="&#xf5;" d="M80 201v837q0 92 64.5 157t154.5 65q92 0 156.5 -65t64.5 -157v-837q0 -92 -64.5 -156.5t-156.5 -64.5q-90 0 -154.5 64.5t-64.5 156.5zM80 1298v121q0 70 50 119t120 49t120 -49t50 -119q0 -31 31 -30q29 0 28 30v119h139v-119q0 -72 -49 -121t-120 -49q-70 0 -119 49.5 t-49 120.5q0 29 -31 29t-31 -29v-121h-139zM219 201q0 -35 23.5 -57.5t56.5 -22.5t56.5 22.5t23.5 57.5v837q0 33 -23.5 56.5t-56.5 23.5t-56.5 -23.5t-23.5 -56.5v-837z" />
<glyph unicode="&#xf6;" d="M80 201v837q0 92 64.5 157t154.5 65q92 0 156.5 -65t64.5 -157v-837q0 -92 -64.5 -156.5t-156.5 -64.5q-90 0 -154.5 64.5t-64.5 156.5zM129 1298v140h141v-140h-141zM219 201q0 -35 23.5 -57.5t56.5 -22.5t56.5 22.5t23.5 57.5v837q0 33 -23.5 56.5t-56.5 23.5 t-56.5 -23.5t-23.5 -56.5v-837zM330 1298v140h139v-140h-139z" />
<glyph unicode="&#xf7;" horiz-adv-x="499" d="M80 799v139h340v-139h-340zM180 600v139h139v-139h-139zM180 999v140h139v-140h-139z" />
<glyph unicode="&#xf8;" d="M80 219v801q0 90 64.5 154.5t154.5 64.5q92 0 156.5 -64.5t64.5 -154.5v-801q0 -90 -64.5 -154.5t-156.5 -64.5q-90 0 -154.5 64.5t-64.5 154.5zM219 217q2 -33 25.5 -55.5t54.5 -22.5q33 0 56.5 23.5t23.5 56.5v424zM219 596l160 426q0 33 -23.5 55.5t-56.5 22.5 t-56.5 -23.5t-23.5 -56.5v-424z" />
<glyph unicode="&#xf9;" d="M61 1538h172l97 -240h-101zM80 201v1038h139v-1038q0 -35 23.5 -57.5t56.5 -22.5t56.5 22.5t23.5 57.5v1038h141v-1239h-71l-17 25q-55 -45 -133 -45q-90 0 -154.5 64.5t-64.5 156.5z" />
<glyph unicode="&#xfa;" d="M80 201v1038h139v-1038q0 -35 23.5 -57.5t56.5 -22.5t56.5 22.5t23.5 57.5v1038h141v-1239h-71l-17 25q-55 -45 -133 -45q-90 0 -154.5 64.5t-64.5 156.5zM229 1298l97 240h172l-168 -240h-101z" />
<glyph unicode="&#xfb;" d="M80 201v1038h139v-1038q0 -35 23.5 -57.5t56.5 -22.5t56.5 22.5t23.5 57.5v1038h141v-1239h-71l-17 25q-55 -45 -133 -45q-90 0 -154.5 64.5t-64.5 156.5zM94 1298l144 240h122l144 -240h-166l-39 76l-37 -76h-168z" />
<glyph unicode="&#xfc;" d="M80 201v1038h139v-1038q0 -35 23.5 -57.5t56.5 -22.5t56.5 22.5t23.5 57.5v1038h141v-1239h-71l-17 25q-55 -45 -133 -45q-90 0 -154.5 64.5t-64.5 156.5zM129 1298v140h141v-140h-141zM330 1298v140h139v-140h-139z" />
<glyph unicode="&#xfe;" d="M80 -399v1638h72l14 -25q57 45 133 46q92 0 156.5 -65t64.5 -157v-837q0 -92 -64.5 -156.5t-156.5 -64.5q-41 0 -80 16v-395h-139zM219 201q0 -35 23.5 -57.5t56.5 -22.5t56.5 22.5t23.5 57.5v837q0 33 -23.5 56.5t-56.5 23.5t-56.5 -23.5t-23.5 -56.5v-837z" />
<glyph unicode="&#xff;" horiz-adv-x="538" d="M27 1239h141l104 -764l101 764h139l-225 -1638h-140l56 413zM111 1298v140h139v-140h-139zM309 1298v140h140v-140h-140z" />
<glyph unicode="&#x152;" horiz-adv-x="899" d="M80 219v1200q0 90 64.5 154.5t154.5 64.5h520v-139h-299v-561h199v-139h-199v-660h299v-139h-520q-90 0 -154.5 64.5t-64.5 154.5zM219 219q0 -33 23.5 -56.5t56.5 -23.5h80v1360h-80q-33 0 -56.5 -23.5t-23.5 -56.5v-1200z" />
<glyph unicode="&#x153;" horiz-adv-x="899" d="M80 219v801q0 90 64.5 154.5t154.5 64.5q88 0 150 -59q63 59 151 59q90 0 154.5 -64.5t64.5 -154.5v-420h-299v-381q0 -33 22.5 -56.5t57.5 -23.5q33 0 56.5 23.5t23.5 56.5v221h139v-221q0 -90 -64.5 -154.5t-154.5 -64.5q-88 0 -151 59q-61 -59 -150 -59 q-90 0 -154.5 64.5t-64.5 154.5zM219 219q0 -33 23.5 -56.5t56.5 -23.5t56.5 23.5t23.5 56.5v801q0 33 -23.5 56.5t-56.5 23.5t-56.5 -23.5t-23.5 -56.5v-801zM520 739h160v281q0 33 -23.5 56.5t-56.5 23.5q-35 0 -57.5 -23.5t-22.5 -56.5v-281z" />
<glyph unicode="&#x178;" horiz-adv-x="540" d="M27 1638h139l104 -520l103 520h141l-174 -921v-717h-139v717zM111 1698v139h139v-139h-139zM309 1698v139h140v-139h-140z" />
<glyph unicode="&#x2c6;" horiz-adv-x="499" d="M45 1698l143 239h123l144 -239h-168l-37 76l-37 -76h-168z" />
<glyph unicode="&#x2dc;" horiz-adv-x="899" d="M80 1698v121q0 70 50 120t120 50t120 -50.5t50 -119.5q0 -31 31 -31q29 0 28 31v118h139v-118q0 -72 -49 -121t-118 -49q-72 0 -121 49t-49 121q0 29 -31 28q-31 0 -31 -28v-121h-139z" />
<glyph unicode="&#x2000;" horiz-adv-x="994" />
<glyph unicode="&#x2001;" horiz-adv-x="1989" />
<glyph unicode="&#x2002;" horiz-adv-x="994" />
<glyph unicode="&#x2003;" horiz-adv-x="1989" />
<glyph unicode="&#x2004;" horiz-adv-x="663" />
<glyph unicode="&#x2005;" horiz-adv-x="497" />
<glyph unicode="&#x2006;" horiz-adv-x="331" />
<glyph unicode="&#x2007;" horiz-adv-x="331" />
<glyph unicode="&#x2008;" horiz-adv-x="248" />
<glyph unicode="&#x2009;" horiz-adv-x="397" />
<glyph unicode="&#x200a;" horiz-adv-x="110" />
<glyph unicode="&#x2010;" horiz-adv-x="499" d="M31 799v139h438v-139h-438z" />
<glyph unicode="&#x2011;" horiz-adv-x="499" d="M31 799v139h438v-139h-438z" />
<glyph unicode="&#x2012;" horiz-adv-x="499" d="M31 799v139h438v-139h-438z" />
<glyph unicode="&#x2013;" d="M80 799v139h440v-139h-440z" />
<glyph unicode="&#x2014;" horiz-adv-x="899" d="M80 799v139h739v-139h-739z" />
<glyph unicode="&#x2018;" horiz-adv-x="299" d="M53 1399l72 239h96l-22 -239h-146z" />
<glyph unicode="&#x2019;" horiz-adv-x="299" d="M57 1399l25 239h145l-71 -239h-99z" />
<glyph unicode="&#x201a;" horiz-adv-x="299" d="M57 -100l25 239h145l-71 -239h-99z" />
<glyph unicode="&#x201c;" horiz-adv-x="499" d="M53 1399l72 239h96l-22 -239h-146zM252 1399l74 239h96l-25 -239h-145z" />
<glyph unicode="&#x201d;" horiz-adv-x="499" d="M57 1399l25 239h145l-71 -239h-99zM258 1399l23 239h145l-72 -239h-96z" />
<glyph unicode="&#x201e;" horiz-adv-x="499" d="M57 -100l25 239h145l-71 -239h-99zM258 -100l23 239h145l-72 -239h-96z" />
<glyph unicode="&#x2022;" horiz-adv-x="399" d="M80 920q0 49 35 83.5t86 34.5q49 0 83.5 -34.5t34.5 -83.5q0 -51 -34.5 -86t-83.5 -35q-51 0 -86 34.5t-35 86.5z" />
<glyph unicode="&#x2026;" horiz-adv-x="698" d="M80 0v139h139v-139h-139zM281 0v139h139v-139h-139zM479 0v139h139v-139h-139z" />
<glyph unicode="&#x202f;" horiz-adv-x="397" />
<glyph unicode="&#x2039;" horiz-adv-x="499" d="M80 809v121l340 227v-149l-209 -140l209 -139v-147z" />
<glyph unicode="&#x203a;" horiz-adv-x="499" d="M80 582v147l209 139l-209 140v149l340 -227v-121z" />
<glyph unicode="&#x205f;" horiz-adv-x="497" />
<glyph unicode="&#x2122;" horiz-adv-x="1099" d="M80 1399v139h340v-139h-101v-400h-139v400h-100zM479 999v539h101l170 -336l170 336h100v-539h-141v177l-93 -177h-75l-93 177v-177h-139z" />
<glyph unicode="&#xe000;" horiz-adv-x="1239" d="M0 0v1239h1239v-1239h-1239z" />
</font>
</defs>
</svg>
